<svg xmlns="http://www.w3.org/2000/svg" viewBox="0 0 64 64" role="img" aria-labelledby="title">
  <title id="title">Yeet skill icon</title>
  <defs>
    <linearGradient id="bg" x1="8" y1="8" x2="56" y2="56" gradientUnits="userSpaceOnUse">
      <stop stop-color="#BE123C"/>
      <stop offset="1" stop-color="#F59E0B"/>
    </linearGradient>
  </defs>
  <rect width="64" height="64" rx="14" fill="url(#bg)"/>
  <path d="M35 41v12s8-1.5 11-6c3-4.8 0-14 0-14" fill="#FFE4E6"/>
  <path d="M17 46c-4 3.3-5 10-5 10s7-1 10-5c1.8-2.2 1.5-5-.4-6.8s-4.5-1.8-4.6 1.8z" fill="#FDBA74"/>
  <path d="M24 31c2-5 5-11 9-15 6-6 14-8 18-8 0 5-1 14-8 21-4 4-10 7-15 9z" fill="#FFF7ED"/>
  <path d="M24 31H12s1.5-8 6-11c4.6-3 14 0 14 0" fill="#FFE4E6"/>
  <circle cx="41" cy="19" r="4" fill="#BE123C"/>
  <path d="M12 18h9M9 27h8M7 36h10" stroke="#FFF7ED" stroke-width="4" stroke-linecap="round"/>
</svg>
