<svg xmlns="http://www.w3.org/2000/svg" viewBox="0 0 128 128" role="img" aria-labelledby="title">
  <title id="title">Visual Canvas</title>
  <rect width="128" height="128" rx="28" fill="#111315"/>
  <rect x="13" y="13" width="102" height="102" rx="22" fill="none" stroke="#2f3337" stroke-width="2"/>
  <path d="M33 36h62M39 36v44a8 8 0 0 0 8 8h34a8 8 0 0 0 8-8V36" fill="none" stroke="#f4f1ea" stroke-width="7" stroke-linecap="round" stroke-linejoin="round"/>
  <path d="M50 91l14-13 14 13" fill="none" stroke="#f4f1ea" stroke-width="7" stroke-linecap="round" stroke-linejoin="round"/>
  <path d="M52 63l14-8 17 13" fill="none" stroke="#d4a73a" stroke-width="6" stroke-linecap="round" stroke-linejoin="round"/>
  <circle cx="52" cy="63" r="7" fill="#d4a73a"/>
  <circle cx="66" cy="55" r="7" fill="#f4f1ea"/>
  <circle cx="83" cy="68" r="7" fill="#d4a73a"/>
  <path d="M93 25l3 8 8 3-8 3-3 8-3-8-8-3 8-3z" fill="#d4a73a"/>
</svg>
