<svg xmlns="http://www.w3.org/2000/svg" viewBox="0 0 64 64" role="img" aria-labelledby="title">
  <title id="title">Confidence Loop skill icon</title>
  <defs>
    <linearGradient id="bg" x1="9" y1="8" x2="56" y2="58" gradientUnits="userSpaceOnUse">
      <stop stop-color="#1D4ED8"/>
      <stop offset="1" stop-color="#7C3AED"/>
    </linearGradient>
  </defs>
  <rect width="64" height="64" rx="14" fill="url(#bg)"/>
  <path d="M50 33c0 12-8 18-17.5 21.5a2.4 2.4 0 0 1-1.8 0C21 51 14 45 14 33V18a2.4 2.4 0 0 1 2.4-2.4c5 0 10.1-2.4 14-5.6a2.5 2.5 0 0 1 3.2 0c4 3.2 9 5.6 14 5.6A2.4 2.4 0 0 1 50 18z" fill="#EFF6FF"/>
  <path d="m24 33 6 6 11-14" fill="none" stroke="#1D4ED8" stroke-width="5" stroke-linecap="round" stroke-linejoin="round"/>
  <path d="M18 26c8-7 20-7 28 0M22 47c6 4 14 4 20 0" fill="none" stroke="#C4B5FD" stroke-width="3" stroke-linecap="round"/>
</svg>
